<?xml version="1.0" standalone="no"?>
<!DOCTYPE svg PUBLIC "-//W3C//DTD SVG 20010904//EN"
 "http://www.w3.org/TR/2001/REC-SVG-20010904/DTD/svg10.dtd">
<svg version="1.0" xmlns="http://www.w3.org/2000/svg"
 width="800.000000pt" height="200.000000pt" viewBox="0 0 800.000000 200.000000"
 preserveAspectRatio="xMidYMid meet">
<metadata>
Created by potrace 1.16, written by Peter Selinger 2001-2019
</metadata>
<g transform="translate(0.000000,200.000000) scale(0.100000,-0.100000)"
fill="#000000" stroke="none">
<path d="M3620 1175 c-91 -90 -144 -135 -164 -139 -16 -3 -70 -6 -120 -6 -104
0 -131 -10 -104 -36 16 -16 18 -16 24 -1 5 14 21 17 101 17 l96 0 -27 -32
c-114 -141 -155 -202 -143 -214 10 -10 59 38 53 52 -2 6 29 53 70 103 l75 91
49 0 c51 0 80 -7 80 -20 0 -4 -8 -25 -17 -46 -9 -22 -17 -41 -18 -44 -1 -3 -9
-21 -17 -40 -9 -19 -14 -38 -12 -42 3 -5 1 -8 -4 -8 -10 0 -22 -35 -28 -83 -5
-41 18 -29 29 14 8 29 57 162 87 235 8 20 14 21 89 17 53 -3 81 -1 81 6 0 6
-17 11 -37 12 -21 1 -45 2 -53 3 -8 2 -25 3 -37 4 -13 1 -23 8 -23 15 0 6 27
68 60 136 60 122 67 142 53 140 -5 -1 -69 -61 -143 -134z"/>
<path d="M4382 1248 c-5 -7 -55 -85 -111 -172 -55 -88 -113 -168 -128 -178
-45 -29 -86 -19 -48 12 18 15 20 43 3 38 -20 -7 -42 -53 -34 -73 5 -14 14 -16
41 -12 19 3 35 2 35 -4 0 -16 26 -10 45 11 10 11 21 20 25 20 4 0 10 -9 13
-20 8 -32 47 -24 90 18 38 37 38 37 32 10 -9 -34 10 -37 48 -8 32 26 35 25 29
-5 -8 -44 23 -44 107 0 22 11 27 10 52 -18 l28 -30 38 33 c36 32 38 33 41 13
2 -12 10 -24 18 -27 17 -6 83 49 71 60 -4 4 -17 -2 -30 -14 -33 -31 -48 -28
-40 8 6 31 -4 39 -25 18 -9 -9 -12 -9 -12 -1 0 7 5 15 10 18 15 9 12 25 -4 25
-8 0 -24 -15 -35 -34 -18 -28 -39 -46 -56 -46 -2 0 -5 14 -7 32 -4 47 -23 45
-74 -6 -54 -56 -67 -58 -58 -11 7 39 -7 46 -42 20 -27 -20 -37 -19 -24 4 15
28 13 34 -10 28 -17 -4 -20 -2 -14 15 11 36 -16 15 -54 -42 -37 -55 -59 -64
-54 -22 3 24 -9 28 -39 12 -17 -10 80 152 172 287 16 23 29 44 29 47 0 11 -17
6 -28 -6z"/>
<path d="M3981 1162 c-5 -10 -39 -31 -75 -46 -36 -16 -66 -34 -66 -42 0 -16
11 -18 26 -6 5 5 22 14 39 21 29 12 29 12 12 -6 -9 -11 -17 -25 -17 -31 0 -25
-85 -132 -112 -141 -24 -8 -28 -15 -23 -31 7 -21 -14 -80 -27 -80 -5 0 -8 -7
-8 -15 0 -8 -5 -15 -12 -15 -6 0 -8 -3 -5 -7 4 -3 2 -12 -5 -20 -6 -7 -8 -16
-4 -20 8 -8 26 16 65 83 23 40 36 53 62 58 38 7 148 -9 197 -30 35 -14 49 -13
38 4 -7 13 -108 39 -179 48 -47 5 -55 9 -46 20 6 8 16 14 21 14 20 0 254 118
296 149 80 60 46 97 -79 88 -66 -5 -77 -4 -72 8 8 22 -14 18 -26 -3z m185 -37
c4 -9 -4 -23 -17 -35 -28 -24 -280 -153 -286 -146 -2 2 22 41 54 87 53 76 63
85 103 96 67 17 139 16 146 -2z"/>
</g>
</svg>
